<svg xmlns="http://www.w3.org/2000/svg" version="1.1" xmlns:xlink="http://www.w3.org/1999/xlink" xmlns:svgjs="http://svgjs.dev/svgjs" width="2000" height="2000" viewBox="0 0 2000 2000"><g transform="matrix(1,0,0,1,-0.28443113772425477,-0.28443113772459583)"><svg viewBox="0 0 334 334" data-background-color="#272751" preserveAspectRatio="xMidYMid meet" height="2000" width="2000" xmlns="http://www.w3.org/2000/svg" xmlns:xlink="http://www.w3.org/1999/xlink"><g id="tight-bounds" transform="matrix(1,0,0,1,0.04749999999998522,0.04750000000001364)"><svg viewBox="0 0 333.90454557049503 333.90454557049503" height="333.90454557049503" width="333.90454557049503"><g><svg></svg></g><g><svg viewBox="0 0 333.90454557049503 333.90454557049503" height="333.90454557049503" width="333.90454557049503"><g><path d="M0 166.952c0-92.205 74.747-166.952 166.952-166.952 92.205 0 166.952 74.747 166.953 166.952 0 92.205-74.747 166.952-166.953 166.953-92.205 0-166.952-74.747-166.952-166.953zM166.952 327.027c88.407 0 160.074-71.668 160.075-160.075 0-88.407-71.668-160.074-160.075-160.074-88.407 0-160.074 71.668-160.074 160.074 0 88.407 71.668 160.074 160.074 160.075z" data-fill-palette-color="tertiary" fill="#000000" stroke="transparent"></path><ellipse rx="160.27418187383762" ry="160.27418187383762" cx="166.95227278524752" cy="166.95227278524752" fill="#000000" stroke="transparent" stroke-width="0" fill-opacity="1" data-fill-palette-color="tertiary"></ellipse></g><g transform="matrix(1,0,0,1,64.73181372922406,71.17305217166896)"><svg viewBox="0 0 204.44091811204692 191.55844122715712" height="191.55844122715712" width="204.44091811204692"><g><svg viewBox="0 0 204.44091811204692 191.55844122715712" height="191.55844122715712" width="204.44091811204692"><g><svg viewBox="0 0 213.1584412271571 199.72664529664286" height="191.55844122715712" width="204.44091811204692"><g transform="matrix(1,0,0,1,0,120.2063977922112)"><svg viewBox="0 0 213.1584412271571 79.52024750443167" height="79.52024750443167" width="213.1584412271571"><g id="textblocktransform"><svg viewBox="0 0 213.1584412271571 79.52024750443167" height="79.52024750443167" width="213.1584412271571" id="textblock"><g><svg viewBox="0 0 213.1584412271571 79.52024750443167" height="79.52024750443167" width="213.1584412271571"><g transform="matrix(1,0,0,1,0,0)"><svg width="213.1584412271571" viewBox="2.05 -35.5 96.49000000000001 36" height="79.52024750443167" data-palette-color="#61777f"><path d="M2.05 0L2.05-35 7.55-35 7.55-20.25 14.55-35 20.05-35 13.5-22.15 20.15 0 14.4 0 9.75-15.6 7.55-11.15 7.55 0 2.05 0ZM30.7 0.5Q26.7 0.5 24.6-1.78 22.5-4.05 22.5-8.3L22.5-8.3 22.5-35 28-35 28-7.9Q28-6.1 28.72-5.3 29.45-4.5 30.8-4.5L30.8-4.5Q32.15-4.5 32.87-5.3 33.6-6.1 33.6-7.9L33.6-7.9 33.6-35 38.9-35 38.9-8.3Q38.9-4.05 36.8-1.78 34.7 0.5 30.7 0.5L30.7 0.5ZM42.8 0L42.8-35 51.2-35Q55.3-35 57.35-32.8 59.4-30.6 59.4-26.35L59.4-26.35 59.4-8.65Q59.4-4.4 57.35-2.2 55.3 0 51.2 0L51.2 0 42.8 0ZM48.3-5L51.1-5Q52.45-5 53.17-5.8 53.9-6.6 53.9-8.4L53.9-8.4 53.9-26.6Q53.9-28.4 53.17-29.2 52.45-30 51.1-30L51.1-30 48.3-30 48.3-5ZM71.04 0.5Q66.99 0.5 64.84-1.8 62.69-4.1 62.69-8.3L62.69-8.3 62.69-26.7Q62.69-30.9 64.84-33.2 66.99-35.5 71.04-35.5L71.04-35.5Q75.09-35.5 77.24-33.2 79.39-30.9 79.39-26.7L79.39-26.7 79.39-8.3Q79.39-4.1 77.24-1.8 75.09 0.5 71.04 0.5L71.04 0.5ZM71.04-4.5Q73.89-4.5 73.89-7.95L73.89-7.95 73.89-27.05Q73.89-30.5 71.04-30.5L71.04-30.5Q68.19-30.5 68.19-27.05L68.19-27.05 68.19-7.95Q68.19-4.5 71.04-4.5L71.04-4.5ZM90.24 0.5Q86.24 0.5 84.19-1.78 82.14-4.05 82.14-8.3L82.14-8.3 82.14-10.3 87.34-10.3 87.34-7.9Q87.34-4.5 90.19-4.5L90.19-4.5Q91.59-4.5 92.32-5.33 93.04-6.15 93.04-8L93.04-8Q93.04-10.2 92.04-11.88 91.04-13.55 88.34-15.9L88.34-15.9Q84.94-18.9 83.59-21.33 82.24-23.75 82.24-26.8L82.24-26.8Q82.24-30.95 84.34-33.23 86.44-35.5 90.44-35.5L90.44-35.5Q94.39-35.5 96.42-33.23 98.44-30.95 98.44-26.7L98.44-26.7 98.44-25.25 93.24-25.25 93.24-27.05Q93.24-28.85 92.54-29.68 91.84-30.5 90.49-30.5L90.49-30.5Q87.74-30.5 87.74-27.15L87.74-27.15Q87.74-25.25 88.77-23.6 89.79-21.95 92.49-19.6L92.49-19.6Q95.94-16.6 97.24-14.15 98.54-11.7 98.54-8.4L98.54-8.4Q98.54-4.1 96.42-1.8 94.29 0.5 90.24 0.5L90.24 0.5Z" opacity="1" transform="matrix(1,0,0,1,0,0)" fill="#ffffff" class="wordmark-text-0" data-fill-palette-color="quaternary" id="text-0"></path></svg></g></svg></g></svg></g></svg></g><g transform="matrix(1,0,0,1,40.713262274387006,0)"><svg viewBox="0 0 131.7319166783831 101.433575842355" height="101.433575842355" width="131.7319166783831"><g><svg version="1.1" xmlns="http://www.w3.org/2000/svg" xmlns:xlink="http://www.w3.org/1999/xlink" x="0" y="0" viewBox="0 0 100 77" enable-background="new 0 0 100 77" xml:space="preserve" height="101.433575842355" width="131.7319166783831" class="icon-icon-0" data-fill-palette-color="quaternary" id="icon-0"><path d="M50 32c-7.168 0-13 5.832-13 13 0 7.168 5.832 13 13 13s13-5.832 13-13C63 37.832 57.168 32 50 32z" fill="#ffffff" data-fill-palette-color="quaternary"></path><path d="M87 13H72c0-7.18-5.82-13-13-13H41c-7.18 0-13 5.82-13 13H13C5.82 13 0 18.82 0 26v38c0 7.18 5.82 13 13 13h74c7.18 0 13-5.82 13-13V26C100 18.82 94.18 13 87 13zM50 68c-12.683 0-23-10.318-23-23 0-12.682 10.317-23 23-23s23 10.318 23 23C73 57.682 62.683 68 50 68z" fill="#ffffff" data-fill-palette-color="quaternary"></path></svg></g></svg></g><g></g></svg></g></svg></g></svg></g></svg></g><defs></defs></svg><rect width="333.90454557049503" height="333.90454557049503" fill="none" stroke="none" visibility="hidden"></rect></g></svg></g></svg>